<?xml version="1.0" standalone="no"?><!DOCTYPE svg PUBLIC "-//W3C//DTD SVG 1.1//EN" "http://www.w3.org/Graphics/SVG/1.1/DTD/svg11.dtd"><svg t="1575361347446" class="icon" viewBox="0 0 1261 1024" version="1.1" xmlns="http://www.w3.org/2000/svg" p-id="30700" width="157.625" height="128" xmlns:xlink="http://www.w3.org/1999/xlink"><defs><style type="text/css"></style></defs><path d="M942.611503 191.852866C942.611503 191.852866 1069.678135 190.590092 1069.678135 316.393957 1069.678135 316.393957 1081.43772 438.17273 942.611503 440.856124 942.611503 440.856124 818.228256 443.539519 819.491029 316.393957 819.491029 316.315034 818.149329 203.61245 942.611503 191.852866L942.611503 191.852866Z" p-id="30701" fill="#1296db"></path><path d="M1192.877529 0.542598C1192.877529 0.542598 1259.725635 5.751541 1259.725635 64.707305L1259.725635 943.755886C1259.725635 943.755886 1255.779462 1006.65782 1192.877529 1007.99952L1192.877529 0.542598 1192.877529 0.542598Z" p-id="30702" fill="#1296db"></path><path d="M0.58206 943.834813C0.58206 943.834813 3.265455 1008.078438 64.82569 1008.078438L1192.877529 1008.078438 1192.877529 822.056038 1069.914908 822.056038 819.491029 567.843839 630.785234 757.733487 374.047485 440.777201 121.176982 819.451565 64.904613 820.714338 63.483992 64.786228 0.58206 64.786228 0.58206 943.834813 0.58206 943.834813Z" p-id="30703" fill="#1296db"></path><path d="M1192.877529 0.542598 64.82569 0.542598C64.82569 0.542598 0.58206-0.799099 0.58206 64.707305L1192.877529 64.707305 1192.877529 0.542598 1192.877529 0.542598Z" p-id="30704" fill="#1296db"></path></svg>